<svg xmlns="http://www.w3.org/2000/svg" xmlns:xlink="http://www.w3.org/1999/xlink" width="1765" height="671" viewBox="0 0 1765 671">
  <defs>
    <clipPath id="clip-スタンプカード_2">
      <rect width="1765" height="671"/>
    </clipPath>
  </defs>
  <g id="スタンプカード_2" data-name="スタンプカード　○ – 2" clip-path="url(#clip-スタンプカード_2)">
    <rect width="1765" height="671" fill="rgba(255,255,255,0)"/>
    <g id="楕円形_5" data-name="楕円形 5" transform="translate(519 84)" fill="none" stroke="#fff" stroke-width="8" stroke-dasharray="20">
      <ellipse cx="103.5" cy="107.5" rx="103.5" ry="107.5" stroke="none"/>
      <ellipse cx="103.5" cy="107.5" rx="99.5" ry="103.5" fill="none"/>
    </g>
    <g id="楕円形_6" data-name="楕円形 6" transform="translate(855 84)" fill="none" stroke="#fff" stroke-width="8" stroke-dasharray="20">
      <ellipse cx="103.5" cy="107.5" rx="103.5" ry="107.5" stroke="none"/>
      <ellipse cx="103.5" cy="107.5" rx="99.5" ry="103.5" fill="none"/>
    </g>
    <g id="楕円形_7" data-name="楕円形 7" transform="translate(1179 84)" fill="none" stroke="#fff" stroke-width="8" stroke-dasharray="20">
      <ellipse cx="103.5" cy="107.5" rx="103.5" ry="107.5" stroke="none"/>
      <ellipse cx="103.5" cy="107.5" rx="99.5" ry="103.5" fill="none"/>
    </g>
    <g id="楕円形_8" data-name="楕円形 8" transform="translate(183 361)" fill="none" stroke="#fff" stroke-width="8" stroke-dasharray="20">
      <ellipse cx="103.5" cy="107.5" rx="103.5" ry="107.5" stroke="none"/>
      <ellipse cx="103.5" cy="107.5" rx="99.5" ry="103.5" fill="none"/>
    </g>
    <g id="楕円形_9" data-name="楕円形 9" transform="translate(519 361)" fill="none" stroke="#fff" stroke-width="8" stroke-dasharray="20">
      <ellipse cx="103.5" cy="107.5" rx="103.5" ry="107.5" stroke="none"/>
      <ellipse cx="103.5" cy="107.5" rx="99.5" ry="103.5" fill="none"/>
    </g>
    <g id="楕円形_10" data-name="楕円形 10" transform="translate(855 361)" fill="#aaa" stroke="#fff" stroke-width="8" stroke-dasharray="20">
      <ellipse cx="103.5" cy="107.5" rx="103.5" ry="107.5" stroke="none"/>
      <ellipse cx="103.5" cy="107.5" rx="99.5" ry="103.5" fill="none"/>
    </g>
    <g id="パス_1" data-name="パス 1" transform="translate(183 84)" fill="none" stroke-dasharray="20">
      <path d="M103.5,0C160.661,0,207,48.129,207,107.5S160.661,215,103.5,215a100.252,100.252,0,0,1-30.583-4.77C30.779,196.807,0,155.887,0,107.5,0,48.129,46.339,0,103.5,0Z" stroke="none"/>
          </g>
    <text id="GOAL" transform="translate(902 488)" fill="rgba(226,222,222,0.98)" font-size="45" font-family="SegoeUI, Segoe UI"><tspan x="0" y="0">GOAL</tspan></text>
    <g id="_1902863" data-name="1902863" transform="translate(243.473 1422.486)">
      <path id="パス_2" data-name="パス 2" d="M75.74-1279.758a15.106,15.106,0,0,0-4.448,1.145,7.276,7.276,0,0,0-3.518,5.114c-.712,3.3.1,7.259,2.235,10.956a28.934,28.934,0,0,0,2.8,3.794c3.906,4.25,8.974,7.133,15.474,8.812,3.546.922,8.749,1.5,10.138,1.135a5.154,5.154,0,0,0,1.833-.9,6.8,6.8,0,0,0,1.755-2.572l.282-.776.3.485a3.659,3.659,0,0,0,3.6,1.8,4.107,4.107,0,0,0,2.531-1.8l.3-.485.282.776a5.522,5.522,0,0,0,.818,1.514,4.523,4.523,0,0,0,4.237,2.067,41.179,41.179,0,0,0,13.183-2.688,27.779,27.779,0,0,0,12.521-9.306,19.228,19.228,0,0,0,3.081-6.075c1.29-4.444.592-8.617-1.826-10.937a6.752,6.752,0,0,0-2.989-1.524c-6.507-1.8-13.529.378-19.81,6.1a33.147,33.147,0,0,0-8.777,12.674l-.437,1.232-.331-.621c-1.142-2.125-3.264-2.873-5.027-1.776a4.846,4.846,0,0,0-1.614,1.776l-.331.621-.437-1.232a33.069,33.069,0,0,0-8.777-12.674C87.45-1278,81.394-1280.359,75.74-1279.758Zm4.7,7.938a19.006,19.006,0,0,1,6.824,3.164,28.5,28.5,0,0,1,8.185,9.19,12.7,12.7,0,0,1,1.262,3.057,31.267,31.267,0,0,1-3.285-.311c-7.882-1.058-14.607-4.512-18.16-9.335-1.3-1.756-2.2-3.843-2.129-4.949.021-.33.042-.369.324-.485a16.281,16.281,0,0,1,2.164-.514,18.888,18.888,0,0,1,2.221-.048A10.653,10.653,0,0,1,80.442-1271.82Zm56.011-.048c.416.1.966.243,1.234.33.451.155.472.175.493.485.078,1.116-.811,3.222-2.129,5-3.553,4.823-10.279,8.278-18.16,9.335a31.267,31.267,0,0,1-3.285.311,5.241,5.241,0,0,1,.508-1.495,27.455,27.455,0,0,1,7.036-9.267,19.884,19.884,0,0,1,9.877-4.862A25.13,25.13,0,0,1,136.453-1271.868Z" transform="translate(-62.633 0)" fill="#fff"/>
      <path id="パス_3" data-name="パス 3" d="M0-935.792v11.208H40.69V-947H0Z" transform="translate(0 -301.043)" fill="#fff"/>
      <path id="パス_4" data-name="パス 4" d="M655-935.792v11.208h40.69V-947H655Z" transform="translate(-609.636 -301.043)" fill="#fff"/>
      <path id="パス_5" data-name="パス 5" d="M57-675.7v21.3H93.563V-697H57Z" transform="translate(-52.873 -527.731)" fill="#fff"/>
      <path id="パス_6" data-name="パス 6" d="M655-675.7v21.3h36.563V-697H655Z" transform="translate(-609.636 -527.731)" fill="#fff"/>
    </g>
    <g id="楕円形_11" data-name="楕円形 11" transform="translate(1503 84)" fill="none" stroke="#fff" stroke-width="8" stroke-dasharray="20">
      <ellipse cx="103.5" cy="107.5" rx="103.5" ry="107.5" stroke="none"/>
      <ellipse cx="103.5" cy="107.5" rx="99.5" ry="103.5" fill="none"/>
    </g>
  </g>
</svg>