<svg xmlns="http://www.w3.org/2000/svg" width="86.054" height="97.721" viewBox="0 0 86.054 97.721">
  <g id="_1902863" data-name="1902863" transform="translate(0 1279.852)">
    <path id="パス_2" data-name="パス 2" d="M75.74-1279.76a15.1,15.1,0,0,0-4.448,1.145,7.275,7.275,0,0,0-3.518,5.114c-.712,3.3.1,7.259,2.235,10.956a28.939,28.939,0,0,0,2.8,3.794c3.906,4.25,8.974,7.133,15.474,8.812,3.546.922,8.749,1.5,10.138,1.135a5.156,5.156,0,0,0,1.833-.9,6.8,6.8,0,0,0,1.755-2.572l.282-.776.3.485a3.659,3.659,0,0,0,3.6,1.8,4.106,4.106,0,0,0,2.531-1.8l.3-.485.282.776a5.522,5.522,0,0,0,.818,1.514,4.523,4.523,0,0,0,4.237,2.067,41.173,41.173,0,0,0,13.183-2.688,27.777,27.777,0,0,0,12.521-9.306,19.229,19.229,0,0,0,3.081-6.075c1.29-4.444.592-8.617-1.826-10.937a6.752,6.752,0,0,0-2.989-1.524c-6.507-1.8-13.529.378-19.81,6.1a33.146,33.146,0,0,0-8.777,12.674l-.437,1.232-.331-.621c-1.142-2.125-3.264-2.873-5.027-1.776a4.847,4.847,0,0,0-1.614,1.776l-.331.621-.437-1.232a33.069,33.069,0,0,0-8.777-12.674C87.45-1278,81.394-1280.36,75.74-1279.76Zm4.7,7.938a19,19,0,0,1,6.824,3.164,28.5,28.5,0,0,1,8.185,9.19,12.7,12.7,0,0,1,1.262,3.057,31.245,31.245,0,0,1-3.285-.311c-7.882-1.058-14.607-4.512-18.16-9.335-1.3-1.756-2.2-3.843-2.129-4.949.021-.33.042-.369.324-.485a16.285,16.285,0,0,1,2.164-.514,18.886,18.886,0,0,1,2.221-.048,10.647,10.647,0,0,1,2.6.233Zm56.011-.048c.416.1.966.243,1.234.33.451.155.472.175.493.485.078,1.116-.811,3.222-2.129,5-3.553,4.823-10.279,8.278-18.16,9.335a31.245,31.245,0,0,1-3.285.311,5.242,5.242,0,0,1,.508-1.495,27.456,27.456,0,0,1,7.036-9.267,19.884,19.884,0,0,1,9.877-4.862,25.132,25.132,0,0,1,4.428.163Z" transform="translate(-62.633)" fill="#fff"/>
    <path id="パス_3" data-name="パス 3" d="M0-935.792v11.208H40.69V-947H0Z" transform="translate(0 -301.043)" fill="#fff"/>
    <path id="パス_4" data-name="パス 4" d="M655-935.792v11.208h40.69V-947H655Z" transform="translate(-609.636 -301.043)" fill="#fff"/>
    <path id="パス_5" data-name="パス 5" d="M57-675.7v21.3H93.563V-697H57Z" transform="translate(-52.873 -527.731)" fill="#fff"/>
    <path id="パス_6" data-name="パス 6" d="M655-675.7v21.3h36.563V-697H655Z" transform="translate(-609.636 -527.731)" fill="#fff"/>
  </g>
</svg>
